<?xml version='1.0' encoding='utf-8'?>
<svg xmlns="http://www.w3.org/2000/svg" enable-background="new 0 0 400 400" version="1.1" viewBox="0 0 400 400"> <style type="text/css">.st0{fill:#C99F01;stroke:#B37A16;stroke-width:0.75;stroke-linejoin:round;stroke-miterlimit:10;} .st1{fill:#B47110;stroke:#8A5812;stroke-width:2;stroke-linejoin:round;stroke-miterlimit:10;} .st2{fill:#AC7204;stroke:#A1620B;stroke-width:2;stroke-linejoin:round;stroke-miterlimit:10;} .st3{fill:#FAFAFA;stroke:#C6C6C6;stroke-width:2;stroke-linejoin:round;stroke-miterlimit:10;} .st4{fill:#FDFDFD;stroke:#DADADA;stroke-linejoin:round;stroke-miterlimit:10;}</style> <path class="st0" d="m75.2 205.3c-3.4 0.7-13.9 3.1-22.3 12.6-6.2 7-8.3 14.5-9 18.3 0 0.2 0 0.4 0.2 0.5l2.1 2.3c0.3 0.4 0.9 0.2 1.1-0.3 1-4.2 3.5-11.7 9.8-18.8 7.7-8.6 16.7-11.7 20.4-12.8-0.8-0.6-1.6-1.2-2.3-1.8z"/> <path class="st0" d="m76 205.1c-3 1.9-11.9 7.9-16.3 19.8-3.2 8.8-2.5 16.5-1.8 20.3 0 0.2 0.2 0.4 0.3 0.4l2.8 1.4c0.4 0.2 1-0.1 0.9-0.6-0.6-4.3-1-12.1 2.4-21 4.1-10.8 11.3-16.9 14.5-19.3-0.9-0.4-1.8-0.7-2.8-1z"/> <path class="st0" d="m77.3 205.8c-2.4 2.6-9.2 10.9-10.2 23.5-0.7 9.3 2.2 16.6 3.9 20 0.1 0.2 0.2 0.3 0.4 0.3l3 0.5c0.5 0.1 0.9-0.4 0.7-0.9-1.7-3.9-4.3-11.4-3.5-20.9 0.9-11.5 6.2-19.4 8.6-22.5-0.9 0.1-1.9 0.1-2.9 0z"/> <path class="st0" d="m324.8 206.4c3.4 0.7 13.9 3.1 22.3 12.6 6.2 7 8.3 14.5 9 18.3 0 0.2 0 0.4-0.2 0.5l-2.1 2.3c-0.3 0.4-0.9 0.2-1.1-0.3-1-4.2-3.5-11.7-9.8-18.8-7.7-8.6-16.7-11.7-20.4-12.8 0.8-0.5 1.6-1.1 2.3-1.8z"/> <path class="st0" d="m324 206.3c3 1.9 11.9 7.9 16.3 19.8 3.2 8.8 2.5 16.5 1.8 20.3 0 0.2-0.2 0.4-0.3 0.4l-2.8 1.4c-0.4 0.2-1-0.1-0.9-0.6 0.6-4.3 1-12.1-2.4-21-4.1-10.8-11.3-16.9-14.5-19.3 0.9-0.4 1.8-0.7 2.8-1z"/> <path class="st0" d="m322.7 207c2.4 2.6 9.2 10.9 10.2 23.5 0.7 9.3-2.2 16.6-3.9 20-0.1 0.2-0.2 0.3-0.4 0.3l-3 0.5c-0.5 0.1-0.9-0.4-0.7-0.9 1.7-3.9 4.3-11.4 3.5-20.9-0.9-11.5-6.2-19.4-8.6-22.5 0.9 0.1 1.9 0.1 2.9 0z"/> <path class="st1" d="m320 211.2c-14.5-6-30.1-10.9-46.7-14.6-21.2-4.8-44-7.5-67.6-7.9h-11.2c-23.7 0.4-46.4 3.1-67.7 7.9-16.6 3.7-32.3 8.6-46.7 14.6-3.3 1.4-7-1-6.7-4.2 7-68.2 61-121.2 126.6-121.2s119.6 53 126.6 121.2c0.4 3.2-3.4 5.5-6.6 4.2z"/> <path class="st2" d="m273.2 196.6c-21.2-4.8-44-7.5-67.6-7.9-1.9-0.1-3.7-0.1-5.6-0.1s-3.7 0-5.6 0.1c-23.7 0.4-46.4 3.1-67.7 7.9 15.6-15.7 42.6-26 73.3-26s57.7 10.3 73.2 26z"/> <circle class="st3" cx="200" cy="130.2" r="26"/> <polygon class="st4" points="200 112.9 205.4 123.8 217.4 125.5 208.7 134 210.7 146 200 140.3 189.3 146 191.3 134 182.6 125.5 194.6 123.8"/> <circle class="st3" cx="269.2" cy="158.1" r="19"/> <polygon class="st4" points="275.5 147.2 274.9 156 281.9 161.5 273.3 163.7 270.2 172.1 265.5 164.6 256.6 164.2 262.3 157.4 259.9 148.9 268.1 152.1"/> <circle class="st3" cx="130.8" cy="157.2" r="19"/> <polygon class="st4" points="124.5 146.3 125.1 155.1 118.1 160.6 126.7 162.8 129.8 171.1 134.5 163.6 143.4 163.3 137.7 156.5 140.1 147.9 131.9 151.2"/> </svg>